<?xml version="1.0" encoding="utf-8"?>
<!-- Generator: Adobe Illustrator 16.0.0, SVG Export Plug-In . SVG Version: 6.00 Build 0)  -->
<!DOCTYPE svg PUBLIC "-//W3C//DTD SVG 1.1//EN" "http://www.w3.org/Graphics/SVG/1.1/DTD/svg11.dtd">
<svg version="1.1" id="Capa_1" xmlns="http://www.w3.org/2000/svg" xmlns:xlink="http://www.w3.org/1999/xlink" x="0px" y="0px"
	 width="320.4px" height="320.4px" viewBox="199.8 19.8 320.4 320.4" enable-background="new 199.8 19.8 320.4 320.4"
	 xml:space="preserve">
<g>
	<path fill="#618095" d="M492.71,152.51h-66.344l46.911-46.912c10.735-10.735,10.735-28.141,0-38.876
		c-10.735-10.735-28.141-10.735-38.876,0l-46.911,46.912V47.29c0-15.181-12.309-27.49-27.49-27.49
		c-15.181,0-27.49,12.309-27.49,27.49v66.344l-46.912-46.911c-10.735-10.735-28.141-10.735-38.876,0
		c-10.735,10.735-10.735,28.141,0,38.876l46.912,46.912H227.29c-15.181,0-27.49,12.309-27.49,27.49
		c0,15.182,12.309,27.49,27.49,27.49h66.344l-46.912,46.911c-10.735,10.735-10.735,28.142,0,38.876
		c10.735,10.735,28.142,10.735,38.876,0l46.912-46.911v66.344c0,15.182,12.309,27.49,27.49,27.49c15.182,0,27.49-12.309,27.49-27.49
		v-66.344l46.911,46.911c10.735,10.735,28.141,10.735,38.876,0c10.735-10.734,10.735-28.141,0-38.876l-46.911-46.911h66.344
		c15.182,0,27.49-12.309,27.49-27.49C520.2,164.819,507.892,152.51,492.71,152.51z"/>
</g>
</svg>
